<svg clip-rule="evenodd" fill-rule="evenodd" height="43.349mm" image-rendering="optimizeQuality" shape-rendering="geometricPrecision" text-rendering="geometricPrecision" viewBox="0 0 488 488" width="43.349mm" xmlns="http://www.w3.org/2000/svg"><g id="Layer_x0020_1"><g id="_445027624"><rect fill="#0273b3" height="488" rx="53" width="488"/><path d="m329 389h61v-114c1-15-4-39-10-52-7-14-17-23-33-28s-38-6-54 0c-12 4-19 10-27 19-1 1-2 2-3 4-1 1-1 2-2 2-1 3 1 2-2 2v-27h-57c-1 3-1 192 0 195h59c1-4 1-80 1-90 0-30 3-55 34-56 33-2 33 27 33 56 0 7 1 84 0 89zm-200-290c-18 3-33 18-30 40 2 18 19 33 40 30 17-3 32-19 29-40-2-17-19-33-39-30zm-25 291h59c1-5 1-41 1-49 0-47 0-98 0-145h-60z" fill="#fff"/><g fill="#025e91"><path d="m261 390h-59c-1-3-1-192 0-195h54l-98-86c6 5 9 12 10 20 3 21-12 37-29 40-10 1-19-2-26-7l33 34h18v145c0 8 0 44-1 49h-59l99 98h233l52-52v-108l-116-117c3 4 6 8 8 12 6 13 11 37 10 52v114h-61c1-5 0-82 0-89 0-29 0-58-33-56-31 1-34 26-34 56 0 10 0 86-1 90z"/><path d="m270 210-11-11v23c3 0 1 1 2-2l2-2 3-4c1-2 2-3 4-4z"/></g></g></g></svg>